<svg xmlns="http://www.w3.org/2000/svg" viewBox="0 0 900 900"><title>rePROMPTer 2 logo</title><desc>Vector rePROMPTer 2 app icon</desc><defs><linearGradient id="cg" x1="0" x2="0" y1="0" y2="1"><stop offset="0" stop-color="#f6f6f8"/><stop offset=".5" stop-color="#cfcfd3"/><stop offset="1" stop-color="#8c8c90"/></linearGradient><linearGradient id="rg" x1="0" x2="0" y1="0" y2="1"><stop offset="0" stop-color="#ff6f6d"/><stop offset=".45" stop-color="#d23234"/><stop offset="1" stop-color="#8e1d20"/></linearGradient></defs><path fill="#0a090d" d="m202 0 191.04-.05h27.06L567.39-.1l77.58-.02 34.88-.01h18.82C702 0 702 0 703 1q5.54.36 11.06.56l3.17.13L725 2v1c5.2 2.03 10.36 2.62 15.88 3.13l2.66.26L750 7v1l6 1v2h4v2h6v2h6v1l2.38.25C777 17 777 17 779 21h6l2 4h4v2l7 1v2h4v2h2v2l3 1 3 1v2h2v2l4 1 2 1v2l5 2v2l4 2 2 1v2h2v2h2v2h2v2h2v2h3q2.07 2.95 4 6l2 1c1.75 2.66 3 4.97 4 8h2v2h2v3l3 1q1.55 2.97 3 6l2 1a86 86 0 0 1 3 8h2q1.59 3.45 3 7c2 4 2 4 5 7 3.55 5.33 5 10.63 5 17l3 1c.73 2.28.73 2.28 1.19 5.06l.48 2.79.33 2.15h1l1 5h1l1 5h1l1 9h1l.18 2.8.26 3.64.24 3.62C893 171 893 171 894 172q.55 3.5 1 7h1l1 22h1v506h-1l-1 18h-2v10h-2v11h-2v8h-1l-1 7h-1l-1 5h-1l-.33 2.15-.48 2.79-.46 2.77L883 776l-3 1q-.77 3.64-1.4 7.3c-.87 3.94-2.64 7.19-4.6 10.7l-1.62 3-1.38 2h-2v4h-2v4h-2v2h-2l-.75 2.69c-1.3 3.43-2.87 5.55-5.25 8.31l-1 2h-2l-1 3-1 2h-2l-.75 2.81C848 834 848 834 844 837l-1.87 2.38c-2.42 2.98-5.17 5.18-8.13 7.62l-2 3h-3v2h-2v2h-2v2h-3v2c-3.77 3.59-6.96 5.68-12 7v2c-3 2-3 2-6 2v2c-2.47 2.47-4.72 2.9-8 4l-2 2h-4v2l-10 4-2.64 1.07c-2.36.93-2.36.93-5.42 1.87C769 887 769 887 765 890c-3.25.69-3.25.69-6 1v1h-8v2l-3.75.44C743 895 743 895 739 896h-4v2l-13 1v1H181v-1l-13-1v-2h-7v-1l-3.44-.44C154 894 154 894 153 893q-4-.55-8-1v-1l-3.25-.31C138 890 138 890 134 887q-4.5-1.05-9-2l-3-2h-2l-1-2q-2.97-1.07-6-2-2.5-.98-5-2v-2h-3v-2l-4-1c-3.25-1.44-3.25-1.44-6-3v-2h-2v-2l-4-1c-4.48-1.34-6.24-3.29-9-7l-2-1v-2h-2v-2l-4-1c-5.8-4.21-5.8-4.21-7-9l-4-2-2-4h-2v-2l-4-2c-5-6.36-5-6.36-5-9l-4-2c-2.2-3.09-3.07-5.27-4-9h-2l-2-6h-2a200 200 0 0 1-3-6h-1v-5l-2-1c-.62-2.56-.62-2.56-1-5h-2c-2-4-2-4-2-9h-2v-5h-2c-2.12-3.19-2.5-5.26-3-9h-1l-.81-4.37A148 148 0 0 0 10 746H9l-.44-4.31C8 737 8 737 7 734q-.32-3.1-.53-6.2l-.27-3.66-.26-3.83L5 707H4V200h1l2-31h1l1-12h1l1-5h2c1.16-4.95 1.53-9.95 2-15h1l.38-2.25C17 132 17 132 19 128h2v-5l3-4 1-4h2l-1-3h2l.31-2.06c1.23-5.26 2.86-9.11 6.69-12.94l1-2h2l1-4 1-2h2l1-4c1.94-3.75 1.94-3.75 4-7h2v-2h2l1-3 1-3h2l1-2c4.64-5 4.64-5 7-5l2-4c3-3 3-3 5-3l2-4q2.93-2.59 6-5l3.19-2.81C84 42 84 42 87 42v-2h2v-2c3.3-3.12 4.32-4 9-4v-2h2v-2c7.75-3 7.75-3 10-3v-2c4.42-2.95 6.58-4 12-4v-2c2.92-1.95 4.63-2.45 8-3v-1l6-1v-1l5-1v-1h6V9l6-1V7l4.31-.44C162 6 162 6 165 5q3 .41 6 1V4l7-1V2h24z"/><path fill="#9c9c9f" d="M416.4 221.58q2.51 0 5-.03l13.55-.02q5.7 0 11.37-.02 13.44-.02 26.88-.01 13.78 0 27.55-.05 11.9-.05 23.77-.04 7.08 0 14.15-.03c47.35-.23 91.39 9.76 124.33 46.62 22.2 26.27 31.99 56.4 31.07 90.4q-.08 3.15-.1 6.28c-.57 17.07-7.59 36.71-16.78 50.88-2.19 3.44-2.19 3.44-2.94 6.75-2.67 7.89-9.43 13.93-15.25 19.69l-2.37 2.54C636.76 465.5 608.31 477.87 580 482l-3.15.52c-4.33.54-8.51.62-12.87.64l-2.65.01-5.68.03-9 .05q-12.77.1-25.55.15-7.83.03-15.66.1l-5.95.03q-4.17.01-8.34.05l-4.78.03c-6.6.59-11.1 2.43-16.37 6.39h-2a61 61 0 0 0-3.43 21.04l-.03 3.2q-.04 5.19-.05 10.38l-.06 7.27-.1 19.09-.12 19.35-.17 28.37-.01 2.94q-.05 8.86 0 17.73c-.17 16.15-4.37 28.27-16.03 39.63-3.07 1.69-3.07 1.69-6 3l-4 2.56c-8.3 5.06-16.53 5.6-26.12 5.75l-4.7.12c-4.71-.48-6.04-.97-9.18-4.43-.63-3.85-.63-3.85-.63-8.65l-.02-2.68q-.02-4.44.02-8.88l-.02-6.37q-.02-8.65.01-17.31v-18.12q0-15.22.04-30.45.06-17.59.02-35.18-.02-16.92 0-33.84v-14.4q-.01-8.49.04-16.97v-6.22c-.05-15.53 1.28-27.36 13.29-38.62 6.92-5.82 15.99-9.56 25.06-9.56l3.44-.02 3.74.02 3.97-.02h8.53l13.53-.03q19.24-.07 38.5-.08 11.78 0 23.55-.07h8.94c18.78.03 35.8-.1 52.99-8.55h2v-2l5-1v-2q2.85-2.5 5.72-4.96c14.32-12.79 21.74-29.02 21.5-48.29A103 103 0 0 0 621 324h-2l-1.25-3.75c-1.63-3.95-2.6-5.57-5.75-8.25l-1.87-1.94A78 78 0 0 0 599 301v-2h-3v-2l-2.12-.25c-2.88-.75-2.88-.75-5.51-2.63-11.77-7.42-27.16-7.85-40.62-7.73l-5.2-.02h-11.03q-8.73.04-17.46 0-15.36-.02-30.72 0-23.19.03-46.39-.02H419.6q-5.37.02-10.76 0-3.7 0-7.37.03l-4.42-.01h-3.85C390 286 390 286 386 283a86 86 0 0 1-.5-10.55v-3.16q0-3.32.03-6.64.03-5.05.01-10.12l.03-6.45-.01-3.05c.1-7.34 1.05-12.63 6.44-18.03 7.74-4.07 15.84-3.44 24.4-3.42"/><path fill="url(#rg)" d="m0 0 4 2.09C16.24 8.7 27.04 16.7 37.55 25.8c3.07 2.44 4.22 3.15 8.19 3.82 4.34-2.17 5.7-4.96 7.9-9.18C55 18 55 18 58 15c5 0 5 0 6.66 1.81 1.94 4.62 2.83 9.32 3.78 14.22l.66 3.24 2.03 10.23 1.37 6.89 3.02 15.18q.5 2.52 1.03 5.02c.6 3.22.7 6.13.45 9.41-3 3-3 3-6.05 3.37-4.94-.46-9.43-1.8-14.13-3.33l-2.92-.92-9.21-2.93-14.88-4.72-2.65-.84-2.58-.83q-2.67-.82-5.36-1.57C14.82 68 12.3 67.29 9 64c.57-4.08 2.1-5.08 5.48-7.46l4.14-2.35 4.17-2.4L26 50C21.68 34.36-8.37 21.9-21.97 15.5-83.51-12.44-155.51-8.43-216 20a215 215 0 0 0-53.26 36.45 176 176 0 0 1-6.87 6.05C-296 79.77-296 79.77-296 88l3.38.75C-289 90-289 90-287 94c-2.63 2.63-3.82 2.29-7.5 2.38l-3.72.1-4.22.08-4.46.12c-9.8.23-19.59.35-29.38.45l-17.95.2-13.4.1-8.48.1h-3.87c-20.01.27-40.43 5.47-54.2 20.85-5.69 7.17-9.33 15.2-12.82 23.62l-1.66 3.52c-4.77 15.95-2.5 35.13-2.5 51.62l-.02 9.45-.03 41.55-.03 44.35v14.35q0 23.1-.05 46.21-.03 23.77-.03 47.56 0 13.33-.03 26.66-.02 12.53 0 25.07l-.02 9.17v12.57l-.02 3.63c.11 20.14 6.18 37.57 21.39 51.29 9.79 7.66 21.96 13.02 34.48 13.19l3.33.05 3.66.04 3.92.06 13.11.16 9.27.12q27.82.35 55.63.6l10.37.1a24306 24306 0 0 0 49.74.42l8.32.07 4.73.04c17.06.58 17.06.58 23.01 8.15 3.23 5.02 4.55 8.75 4.57 14.63l.1 15.22q.06 6.24.09 12.5.02 6.04.1 12.07l-.01 3.75c.12 8.4.8 14.62 7.52 20.33A30.7 30.7 0 0 0-173 629q2.1-1.57 4.15-3.22c4.6-3.63 9.37-6.99 14.22-10.28l2.53-1.72q6.4-4.37 12.97-8.47c5.27-3.28 10.08-7.1 14.97-10.92 2.7-2.04 5.4-3.87 8.28-5.64 5.07-3.13 9.8-6.62 14.57-10.19a592 592 0 0 1 31.5-21.72q2.8-1.84 5.55-3.73l2.73-1.83 2.36-1.62c8.78-4.59 17.27-6.26 27.1-6.26l3.44-.05 11.28-.08 8.1-.09Q3.87 543.05 17 543l8.97-.05q22.96-.12 45.93-.2l4.63-.02 23.67-.06q11.74 0 23.48-.08l8.8-.01q6.09 0 12.18-.05l3.58.02c16.86-.19 32.66-7.79 43.76-20.55q1.62-3.45 3-7 1.76-3.48 3.56-6.94c6.73-13.44 6.6-27.2 6.58-41.98l.02-17.44.02-9.63.03-42.41.03-45.24v-14.65q0-23.58.05-47.17l.03-48.5q0-13.61.03-27.21.03-12.8 0-25.59l.02-9.37v-12.82l.02-3.72c-.06-11.07-1.51-21.95-6.89-31.77a95 95 0 0 1-4.92-10.15c-5.98-12.92-20.32-17.5-33.08-20.96-6.26-1.55-12.15-1.9-18.58-1.9a2623 2623 0 0 0-24.19-.2q-3.24-.04-6.47-.05c-5.39-.05-10.18-.27-15.26-2.3-1.06-2.5-1.06-2.5-1-5 2.56-2.56 3.81-2.3 7.38-2.5 4.08-.22 5.82-.6 9.62-2.5 28.6-5.32 54.17-4.99 79 11l2.75 1.44c2.97 2.06 4.32 4.51 6.25 7.56l2.83 3.07c3.7 4.26 5.78 8.97 7.98 14.12l1.2 2.7c5.37 12.25 5.17 24.78 5.18 37.99l.03 3.54.02 6.51C217 176 217 176 216 178.91c-1.37 5.59-1.26 10.9-1.22 16.64v3.83q0 6.36.04 12.72l.01 9.13.05 19.65q.05 14.22.06 28.46l.07 46.24.01 2.8.07 30.83.03 11.17v2.78q.06 23.03.08 46.04.01 14.19.06 28.37.04 10.89.04 21.77 0 4.46.03 8.9c.13 27.4-1.78 49.28-22.9 68.98-13 10.54-27.14 15.97-43.76 15.87h-3.78c-19.12-.08-38.24-.3-57.36-.48q-29.85-.29-59.7-.53l-15.46-.13a5444 5444 0 0 0-33.2-.23c-21.8-.2-35.84 4.6-53.27 18.08-2.74 2.08-5.53 4-8.4 5.89a631 631 0 0 0-16.25 11.12q-9.18 6.46-18.44 12.82a1398 1398 0 0 0-18.38 12.81l-10.83 7.7c-22.5 16.1-22.5 16.1-29.6 17.86v2c-8.74 3.38-18.75 2.26-27-2-7.54-5.64-11.28-12.8-12.37-22.19a224 224 0 0 1-.13-10.4l-.03-3.81q-.04-5.99-.03-11.98 0-6-.04-12.03-.03-3.74-.01-7.46l-.02-3.41v-3c-.43-3.18-1.63-5.05-3.37-7.72v-2c-4.51-1.74-8.25-2.25-13.07-2.24l-4.3-.01-4.68.02h-4.96q-6.75 0-13.49.03-5.64.03-11.3.02-32.08.05-64.18.48l-6.13.08q-13.29.17-26.58.4l-10.98.16q-3.73.05-7.46.13c-23 .31-23 .31-32.87-6.07l-4-1.37c-4.6-1.87-7.34-4.3-11-7.63l-3.83-2.64c-4.62-3.44-7.4-7.48-10.36-12.36l-1.56-2.53c-6.3-10.47-10.35-21.2-10.4-33.51l-.01-3.63v-3.95l-.02-4.22-.04-14.03-.04-10.05a24964 24964 0 0 1-.13-47.23l-.02-5.75-.3-100.21-.17-59.46-.01-2.85-.13-44.09-.07-25.74-.02-3.95c0-5.7.06-11.18 1.11-16.8h2l.38-4.12A44 44 0 0 1-455 130l1.56-4.69c2.44-7.31 2.44-7.31 4.75-9.12 2.69-2.19 2.69-2.19 4.31-4.88 5.02-7 12.69-12.54 20.38-16.31h2v-2c13.41-4.94 26.36-6.43 40.6-6.12l9.36.1 14.58.23q7.1.11 14.19.17l4.42.11 4.1.03 3.6.06c5.99-1.1 8.93-6.45 12.34-11.14a271 271 0 0 1 12.74-15.85C-304 58-304 58-302 54c2.24-2 2.24-2 4.88-4 2.6-2 5.02-3.9 7.31-6.25C-288 42-288 42-286 42v-2c5.36-5.05 11.13-9.43 17.05-13.8a272 272 0 0 0 7.57-5.89C-249.47 11-249.47 11-245 11V9c2.26-1.42 2.26-1.42 5.41-3.05l3.48-1.8 3.74-1.9 3.78-1.94c8.07-4.1 16.1-8.17 24.59-11.31l2.45-.91C-135.33-36.2-62.62-33.24 0 0" transform="translate(571 123)"/><path fill="url(#cg)" d="M0 0q2.5 0 5-.03 6.77-.03 13.55-.02l11.36-.02Q43.35-.09 56.8-.08q13.78 0 27.55-.05 11.89-.06 23.78-.04 7.06 0 14.14-.03c47.35-.23 91.39 9.76 124.33 46.62 22.2 26.27 32 56.4 31.07 90.4q-.08 3.15-.1 6.28c-.9 26.63-15.45 55.8-33.97 74.32l-1-2c1.48-2.1 1.48-2.1 3.63-4.62 17.64-21.47 28.83-51.57 23.94-79.29l-.63-3.34-.55-3.4c-1.65-8.89-4.67-14.2-12.39-19.35-4.06.15-6.44.62-9.81 2.94-3.12 2.01-4.7 2.48-8.25 3.06-4.36.75-6.74 1.8-9.94 5l-2.62 2.25c-3.72 4.3-4.95 9.05-6.32 14.5-3.87 15.5-10.48 30.14-21.06 42.25l-1.63 2.07c-13.82 16.97-37.2 23.8-58.36 24.18l-4.64.1-9.5.17c-8.88.2-17.5.82-26.29 2.02-4.78.61-9.52.83-14.33.96a340 340 0 0 0-26.67 2.1c-3.37.3-6.53.43-9.9.4-4.64 0-8.22.78-12.68 2-4.42.76-7.64 1.07-12.06.25-5.25-.33-6.9 1.52-10.94 4.75l-3.32 1.28c-4.34 2.03-6.72 4.43-9.93 7.97L-4.74 227c-5.36 6.86-6.36 13.5-7.3 21.92l-.36 3c-1.63 13.75-2.16 27.45-2.14 41.3v54.66a21425 21425 0 0 1 0 49.48v41.16c.13 2.9.13 2.9 1.13 5.9-3 0-3 0-5-2-.2-2.77-.26-5.56-.27-8.34v-2.64l-.02-8.82-.02-6.31-.02-17.18-.02-14.33-.02-33.84q0-17.44-.05-34.89-.04-14.97-.04-29.95l-.02-17.89q-.03-8.42 0-16.84l-.02-6.17c-.09-15.5 1.27-27.26 13.25-38.49 6.92-5.82 16-9.56 25.06-9.56l3.44-.02 3.74.01 12.5-.01 13.54-.03q19.24-.07 38.49-.08 11.77 0 23.55-.07h8.95c18.77.03 35.8-.1 52.98-8.55h2v-2l5-1v-2q2.85-2.5 5.72-4.96c14.32-12.79 21.74-29.02 21.5-48.29a103 103 0 0 0-6.22-27.75h-2l-1.25-3.75c-1.63-3.95-2.6-5.57-5.75-8.25l-1.87-1.94a78 78 0 0 0-11.13-9.06v-2h-3v-2l-2.12-.25c-2.88-.75-2.88-.75-5.51-2.63-11.77-7.42-27.16-7.85-40.62-7.73l-5.19-.02h-11.04q-8.73.04-17.46 0-15.36-.03-30.72 0-23.19.03-46.39-.02H3.2q-5.4.02-10.77 0l-7.37.03-4.42-.02-3.85.01c-3.19-.37-3.19-.37-7.19-3.37a86 86 0 0 1-.5-10.55v-3.16q0-3.33.04-6.64.03-5.05 0-10.12l.03-6.45-.01-3.05c.1-7.34 1.05-12.63 6.44-18.03C-16.66-.65-8.57-.02 0 0" transform="translate(416.408 221.58)"/><path fill="#57585b" d="M358.5 312.73h19.05q8.25.02 16.5 0h18.8l8.48.01h4.87c3.8.26 3.8.26 6.8 2.26v2h2v57h-2v2c-4.29.82-8.3 1.1-12.67 1.07l-3.97-.03-4.26-.05-9.02-.05q-7.08-.04-14.15-.11l-13.7-.09-4.2-.05c-21.59-.06-41.13 5.16-56.34 21.21-12.38 15.38-15.98 31.44-16 50.72l-.04 4.7-.06 12.7-.06 13.3-.12 25.14-.14 28.65L298 592h-4l-.03-4.57a67484 67484 0 0 0-.62-85.81l-.14-19.4-.02-3.36c-.15-15.78-.15-15.78-3.19-21.86-.82-3.1-1.52-6.2-2.22-9.32C287 445 287 445 285 443c-8.57-1.97-8.57-1.97-12.16.46a198 198 0 0 0-3.91 3.91C267 449 267 449 263 449.44c-5.18.73-6.77 2.8-10.18 6.58C251 458 251 458 248.12 460c-4.43 4.17-4.18 10.31-4.56 16.06-.25 3.68-.55 5.9-2.06 9.32-5.17 12.49-2.68 29.79-2.7 43.16l-.01 3.66q-.03 9.56-.03 19.12 0 9.87-.06 19.74l-.02 15.2q0 3.66-.03 7.3-.02 5.06 0 10.13-.03 1.5-.03 3.05c.04 6.92.04 6.92 3.38 10.26 3.08.33 5.96.49 9.04.51l2.68.06q4.23.07 8.47.12l5.74.1q7.04.13 14.07.21v3q-8.83.15-17.67.22l-6 .08q-4.33.07-8.65.09l-2.71.06c-5.31 0-8.3-.5-11.97-4.45-1.54-3.08-1.13-6.01-1.14-9.45l-.02-10.2-.02-5.63-.03-24.88-.03-30q0-17.28-.05-34.56-.03-13.37-.03-26.74l-.03-15.96q-.02-7.52 0-15.05l-.02-5.48c-.15-28.93 5.96-60.44 25.37-83.05l2.04-2.61c4.28-5.39 8.61-10.15 13.92-14.54C277 337 277 337 278.9 334.43c2.46-2.85 4.4-3.7 7.91-5A69 69 0 0 0 297 324.7c3-1.69 3-1.69 7-1.69v-2q4.59-1.46 9.19-2.87l2.56-.82c14.14-4.34 28.1-4.61 42.76-4.58"/><path fill="#29282f" d="m202 0 191.04-.05h27.06L567.39-.1l77.58-.02 34.88-.01h18.82C702 0 702 0 703 1q5.54.36 11.06.56l3.17.13L725 2v1c5.2 2.03 10.36 2.62 15.88 3.13l2.66.26L750 7v1l6 1v2h4v2h6v2h6v1l2.38.25C777 17 777 17 779 21h6l2 4h4v2l7 1v2h4v2h2v2l3 1 3 1v2h2v2l4 1 2 1v2l5 2v2l4 2 2 1v2h2v2h2v2h2v2h2v2h3q2.07 2.95 4 6l2 1c1.75 2.66 3 4.97 4 8h2v2h2v3l3 1q1.55 2.97 3 6l2 1a86 86 0 0 1 3 8h2q1.59 3.45 3 7c2 4 2 4 5 7 3.55 5.33 5 10.63 5 17l3 1c.73 2.28.73 2.28 1.19 5.06l.48 2.79.33 2.15h1l1 5h1l1 5h1l1 9h1l.18 2.8.26 3.64.24 3.62C893 171 893 171 894 172q.55 3.5 1 7h1l1 22h1v506h-1l-1-310-3 3h-5c-2.84-4.26-2.17-8.36-2.06-13.31.13-6.64.06-13.22-.3-19.85a613 613 0 0 1-.65-36.7l.04-10.38q.05-14.73.14-29.45.05-9.07.08-18.15 0-3.45.04-6.88l.04-9.56.03-2.86c-.02-6.52-.02-6.52-3.36-9.86l1-3h2c1.05-70.4-15.43-136.27-70.27-183.84-42.9-34.22-94.28-43.34-147.77-43.3H644.8l-17.54-.01-62.22-.02-79.23-.02h-8.63l-69.2-.02a105492 105492 0 0 0-111.06-.03 25657 25657 0 0 0-51.3-.01 5262 5262 0 0 0-21.6 0c-17.65-.05-35.4.81-52.7 4.5l-3.16.66C139.84 24 114.13 35.59 91 53l-2.7 2c-20.27 15.82-35.86 35.46-48.4 57.75C38 116 38 116 36 118h-4c-2.33-4.65-1.93-6.03-1-11l.38-3.75C32 100 32 100 35 97l1-2h2l1-4 1-2h2l1-4c1.94-3.75 1.94-3.75 4-7h2v-2h2l1-3 1-3h2l1-2c4.64-5 4.64-5 7-5l2-4c3-3 3-3 5-3l2-4q2.93-2.59 6-5l3.19-2.81C84 42 84 42 87 42v-2h2v-2c3.3-3.12 4.32-4 9-4v-2h2v-2c7.75-3 7.75-3 10-3v-2c4.42-2.95 6.58-4 12-4v-2c2.92-1.95 4.63-2.45 8-3v-1l6-1v-1l5-1v-1h6V9l6-1V7l4.31-.44C162 6 162 6 165 5q3 .41 6 1V4l7-1V2h24z"/><path fill="url(#rg)" d="m0 0 4 2.09C16.24 8.7 27.04 16.7 37.55 25.8c3.07 2.44 4.22 3.15 8.19 3.82 4.34-2.17 5.7-4.96 7.9-9.18C55 18 55 18 58 15c5 0 5 0 6.66 1.81 1.94 4.62 2.83 9.32 3.78 14.22l.66 3.24 2.03 10.23 1.37 6.89 3.02 15.18q.5 2.52 1.03 5.02c.6 3.22.7 6.13.45 9.41-3 3-3 3-6.05 3.37-4.94-.46-9.43-1.8-14.13-3.33l-2.92-.92-9.21-2.93-14.88-4.72-2.65-.84-2.58-.83q-2.67-.82-5.36-1.57C14.82 68 12.3 67.29 9 64c.57-4.08 2.1-5.08 5.48-7.46l4.14-2.35 4.17-2.4L26 50C21.68 34.36-8.37 21.9-21.97 15.5-83.51-12.44-155.51-8.43-216 20a215 215 0 0 0-53.26 36.45 176 176 0 0 1-6.87 6.05C-296 79.77-296 79.77-296 88l3.38.75C-289 90-289 90-287 94c-2.63 2.63-3.82 2.29-7.5 2.38l-3.72.1-4.22.08-4.46.12c-9.8.23-19.59.35-29.38.45l-17.95.2-13.4.1-8.48.1h-3.87c-20.01.27-40.43 5.47-54.2 20.85-5.69 7.17-9.33 15.2-12.82 23.62l-1.57 3.75c-1.46 4.33-1.9 7.81-2.06 12.36l-.2 4.53-.34 9.4-.2 4.51-.15 4.11C-452 184-452 184-455 187l-4-2c-.5-3.7-.5-3.7-.5-8.52v-2.6l.03-5.46q.03-4.13.01-8.24c.01-9.42.52-18.16 3.46-27.18l.79-2.75q1.06-3.64 2.21-7.25l.88-2.87c1.5-2.83 3.61-4.16 6.12-6.13l1.63-2.69c5.01-7 12.68-12.54 20.37-16.31h2v-2c13.41-4.94 26.36-6.43 40.6-6.12l9.36.1 14.58.23q7.1.11 14.19.17l4.42.11 4.1.03 3.6.06c5.99-1.1 8.93-6.45 12.34-11.14a271 271 0 0 1 12.74-15.85C-304 58-304 58-302 54c2.24-2 2.24-2 4.88-4 2.6-2 5.02-3.9 7.31-6.25C-288 42-288 42-286 42v-2c5.36-5.05 11.13-9.43 17.05-13.8a272 272 0 0 0 7.57-5.89C-249.47 11-249.47 11-245 11V9c2.26-1.42 2.26-1.42 5.41-3.05l3.48-1.8 3.74-1.9 3.78-1.94c8.07-4.1 16.1-8.17 24.59-11.31l2.45-.91C-135.33-36.2-62.62-33.24 0 0" transform="translate(571 123)"/><path fill="url(#rg)" d="m0 0 20.16 5.75 6.53 1.88 3.08.87c10.04 2.9 10.04 2.9 13.94 5.45l1 4c-3.52 4.78-8.47 7-13.67 9.57-2.33 1.43-2.33 1.43-3.33 4.43 5.49 7.44 12.55 12.62 20 18l3.3 2.4C105.89 90.65 173.9 100.59 238.15 84a210 210 0 0 0 43.56-17.07l4.36-2.22c8.6-4.45 16.73-9.2 24.64-14.77l3.32-2.27a240 240 0 0 0 47.53-43.34l3.15-3.4 3 1L366.18 4l-1.97 2.7-1.97 2.68c-1.53 2.58-1.53 2.58-1.53 6.58 12.1 2.97 12.1 2.97 16.57.68a66 66 0 0 0 5.43-5.68l4-3c-6.81 19.34-31.18 38.76-47 51l-2.15 1.82c-23.78 19.97-52.46 34.54-81.85 44.17q-1.28.44-2.6.87c-66.58 21.83-143.22 12.75-202.82-24.12-4.3-2.78-8.45-5.72-12.58-8.75l-3.37-2.39a179 179 0 0 1-17.16-14.34l-2.47-2.27-2.5-2.35c-2.5-1.65-2.5-1.65-5-1.83-3.8 1.8-5.27 4.64-7.56 8.12-4.53 6.86-4.53 6.86-8.94 9.06-4.28-3.42-4.87-6.59-5.82-11.88l-.87-4.79-.87-5.01-.88-4.86q-1.3-7.23-2.56-14.45l-.87-4.82-.82-4.56-.73-4.07c-1.72-10.56-1.72-10.56.92-15.18C-15.64-6.06-6.4-1.85 0 0" transform="translate(273.29 700.055)"/><path fill="#2e2c34" d="M285 442c4.62 3.44 5.2 8.98 6.39 14.36C292 459 292 459 293 461c1 7.08 1.17 14.07 1.2 21.22l.04 3.61.08 11.74.06 8.16.15 21.44.16 21.9L295 592h3q.08 4.53.13 9.06l.05 2.57c.03 5.14-.24 9.58-2.18 14.37-4.08 3.06-4.56 3.37-9.25 3.19L282 621v-3l-3.6.06q-6.64.11-13.27.16l-5.74.08-8.25.1-2.59.05c-3.34 0-5.9-.05-8.78-1.83-2.75-4.07-2.3-8.3-2.24-13.04v-3.22q0-5.26.04-10.54l.01-7.35.06-15.43q.06-9.84.07-19.68l.05-18.85.01-3.6c.12-34.35.12-34.35 4.23-42.91q.67-4.04 1.06-8.12c.9-9.02 2.38-12.83 9.06-19.13l3.32-3.2c4.08-2.92 6.66-3.08 11.56-3.55 2.18-1.66 2.18-1.66 3.88-3.62 4.75-4.57 7.88-4.02 14.12-2.38"/><path fill="#58595c" d="M450 536c3.17 3.8 4.21 8.5 5.56 13.19l1.26 4.29c2.6 9.96 3.49 18.87 3.48 29.14l.01 4.2v8.73q.01 6.66.05 13.3v8.52l.03 4c-.08 15.8-5.22 26.48-16.56 37.4-9.47 7.49-21.75 9.28-33.45 7.54C407 665 407 665 404 661c-.37-3.77-.37-3.77-.36-8.4v-2.54q0-4.15.05-8.31 0-2.9.03-5.78a960 960 0 0 1 1.4-44.7c1.4-25.86 1.4-25.86 5.7-33.9l1.45-2.85c3.35-4.88 7.07-6.9 12.67-8.52a39 39 0 0 0 12.06-6q3.48-1.54 7-3c1-1 1-1 6-1"/><path fill="url(#rg)" d="m0 0 106.46-.07a36037 36037 0 0 1 59.64-.04h5.39l7.33-.01h4.15C186 0 186 0 187 1q2.84.14 5.67.15l3.74.02h4.14l4.33.02 9.36.04 14.87.06q21.13.12 42.27.19a12955 12955 0 0 1 35.65.15c41.1.11 41.1.11 50.97 2.37l2 4c-3.3 3.3-6.97 3.13-11.39 3.14l-3.33.01h-3.66l-3.9.01-12.97.03-29.3.07-29.06.07-47.28.12h-2.86l-17.2.04-25.64.06h-2.83l-75.92.2q-11.15.01-22.28.05l-9.06.02C.87 11.9-59.06 13.9-111 53l-2.7 2c-20.27 15.82-35.86 35.46-48.4 57.75C-164 116-164 116-166 118h-4c-2.33-4.65-1.93-6.03-1-11l.38-3.75C-170 100-170 100-167 97l1-2h2l1-4 1-2h2l1-4c1.94-3.75 1.94-3.75 4-7h2v-2h2l1-3 1-3h2l1-2c4.64-5 4.64-5 7-5l2-4c3-3 3-3 5-3l2-4q2.93-2.59 6-5l3.19-2.81C-118 42-118 42-115 42v-2h2v-2c3.3-3.12 4.32-4 9-4v-2h2v-2c7.75-3 7.75-3 10-3v-2c4.42-2.95 6.58-4 12-4v-2c2.92-1.95 4.63-2.45 8-3v-1l6-1v-1l5-1v-1h6V9l6-1V7l4.31-.44C-40 6-40 6-37 5q3 .41 6 1V4l7-1V2H0z" transform="translate(202)"/><path fill="url(#rg)" d="m0 0 2.75 1.44C5.72 3.5 7.07 5.95 9 9l2.83 3.07c3.7 4.26 5.78 8.97 7.98 14.12l1.2 2.7c5.37 12.25 5.17 24.78 5.18 37.99l.04 3.54v3.45l.01 3.06C26 80 26 80 25 82.91c-1.36 5.59-1.26 10.9-1.22 16.64v3.83q0 6.36.04 12.73l.01 9.12.05 19.65q.05 14.22.06 28.46l.07 46.24.01 2.8.1 44.78.08 46.04q.01 14.19.07 28.37.03 10.89.03 21.77 0 4.46.03 8.9c.13 27.4-1.78 49.28-22.9 68.98-11 8.9-24.8 15.94-39.16 15.88l-3.93-.01-4.09-.03-4.14-.01L-60 457l-2-6c4.82-3.61 6.83-3.36 12.75-3.44C-29.97 446.92-11.89 441.1 1 426a118 118 0 0 0 3-7q1.76-3.48 3.56-6.94c6.73-13.44 6.6-27.2 6.58-41.98v-4.06q.03-6.69.02-13.38l.02-9.63.03-42.41.03-45.24v-14.65q0-23.58.05-47.17l.03-48.5q0-13.61.03-27.21.03-12.8 0-25.58l.02-9.38V70.05l.02-3.72c-.06-11.06-1.51-21.95-6.89-31.77a95 95 0 0 1-4.92-10.15C-3.4 11.49-17.74 6.9-30.5 3.45c-6.26-1.55-12.15-1.9-18.58-1.9a2623 2623 0 0 0-24.19-.2q-3.23-.04-6.47-.05C-85.13 1.25-89.92 1.03-95-1c-1.06-2.5-1.06-2.5-1-5 2.56-2.56 3.81-2.3 7.38-2.5 4.08-.22 5.82-.6 9.62-2.5 28.6-5.32 54.17-4.99 79 11" transform="translate(762 219)"/><path fill="#595a5d" d="m638 701 3 1-1.53 2.05-1.97 2.7-1.97 2.67C634 712 634 712 634 716c12.1 2.98 12.1 2.98 16.57.68A66 66 0 0 0 656 711l4-3c-6.81 19.34-31.18 38.76-47 51l-2.15 1.82C587.07 780.79 558.39 795.36 529 805l-2.6.87c-19.9 6.52-41.44 10.73-62.4 11.13v-3l-4-1c-1.89-1.67-1.89-1.67-3.69-3.75l-1.82-2.05c-1.7-2.5-2.36-4.17-2.49-7.2 4.04-4.04 8.07-4.02 13.5-4.69l2.92-.39c3.54-.47 7-.92 10.58-.92v-3l4.48-.88c25.1-5.04 48.73-11.2 71.52-23.12l4.37-2.23c8.6-4.45 16.72-9.2 24.63-14.77l3.32-2.27a240 240 0 0 0 47.52-43.34z"/><path fill="#2d2b33" d="m30 104 2 1-.56 4.25C31 114 31 114 32 118c4.75-1.87 4.75-1.87 7-3-1.56 5.03-3.62 9.75-5.75 14.56-15.63 36.47-17.45 76.2-17.36 115.36v20.78l.02 15.89q0 15 .02 29.99l.02 34.19L16 416h4.26l15.83-.01h6.82c12.47-.02 24.94-.02 37.4.26l2.92.04c3.91.15 6.24.3 9.37 2.76L94 421l-1 2-2.05-.5a58 58 0 0 0-10.13-.61h-4.36l-4.7.01h-4.82l-12.66.03-12.93.02L16 422v30l9.85.11 9.47.15 6.57.09q4.73.05 9.46.14l2.96.02c12.38.26 17.7 7 26 15.37l3.36 3.3 3.2 3.19 2.9 2.9c2.25 2.75 2.94 4.25 3.23 7.73-4.78-1.2-6.15-2.82-9.57-6.31l-3.22-3.26-3.33-3.43-6.57-6.69-2.94-3c-4.46-4.34-8.95-3.44-14.85-3.4h-3.15l-10 .03-6.76.01L16 459c-1.2 11.43-1.05 22.8-.9 34.27l.06 7.64.05 4.56C15 509 15 509 13 511c-5 0-5 0-7-2-.16-2.72-.16-2.72-.06-6.06.1-3.75.02-7.24-.43-10.97-.56-5.43-.65-10.75-.64-16.2l-.01-3.34v-11.01l-.02-7.93-.01-35.02q-.02-23.64-.01-47.28 0-21.88-.03-43.76a36569 36569 0 0 1-.03-60.23C4.7 234.4 4.99 201.74 7 169h1l1-12h1l1-5h2c1.15-4.95 1.53-9.95 2-15h1l.38-2.25C17 132 17 132 19 128h2v-5l3-4 1-4h2l-1-3h2l.44-2.31C29 107 29 107 30 104"/><path fill="#38363d" d="M448.94 210.81h2.9c15.56 0 31.04.55 46.57 1.4 12.86.7 25.51.72 38.38.03 12.12-.64 23.4 1.21 35.21 3.76q2.85.52 5.69 1c15.8 2.9 15.8 2.9 20.8 6.56 4.21 2.93 7.33 3.19 12.31 3.86 8.32 1.51 14.89 5.07 21.2 10.58q2.8 1.55 5.63 3c4.22 2.22 6.47 4.2 9.37 8l3.7 1.75c4.56 2.39 7.47 4.95 11.05 8.62l3.3 3.34c2.68 3 4.78 5.92 6.95 9.3q3.84 5.1 7.75 10.16c3.92 5.14 5.89 8.9 7.06 15.2 1.27 4.92 3.14 7.64 6.19 11.63 3.18 12.73 3.19 26.2 3.19 39.25V352c-.04 6.08-.25 11.97-1.2 18H693l.05-2.76c.65-43.58-8.84-79.29-41.92-109.9C634.02 242.62 614.66 233 593 227l-3.94-1.12c-17.3-4.18-35.04-3.47-52.73-3.42h-14.3q-11.97-.01-23.96.02-13.82.02-27.64 0-11.92-.04-23.85-.02h-14.2q-6.66-.02-13.32.01-3.6.01-7.18-.01c-7.98.06-13.99.35-20.88 4.54-4.56 6.08-4.17 11.51-4.2 18.82l-.02 3.2-.02 6.68q-.02 5.13-.07 10.26l-.02 6.49-.04 3.1c.01 2.5.18 4.97.37 7.45 3.71 2.48 5.59 2.25 10.02 2.27l4.49.02 10.13.02 11.18.03q8.84 0 17.67.05 18.75.07 37.51.11 20.25.04 40.49.12 8.79.04 17.58.05l10.92.03 7.5.01 4.49.02 3.91.01C566 286 566 286 569 288q-35.7.1-71.43.16-16.57.01-33.16.07-14.44.05-28.9.05-7.65 0-15.3.04l-14.4.02-5.3.02h-7.2l-4.08.01C386 288 386 288 383 285q-.6-4.5-1-9l-1.39-6.8c-.84-4.4-1.55-8.83-2.23-13.26l-.41-2.54c-1.8-11.74-1.4-20.55 6.53-29.65L388 220l2.31-2.94c2.99-3.65 6.14-3.48 10.69-4.06l3.81-.5c14.66-1.56 29.4-1.7 44.13-1.69"/><path fill="#302d35" d="m483 87 7.25 1.5 3.86.8c3.79.68 7.5 1.05 11.33 1.39 25.23 3 57.02 16.1 76.36 32.5 3.18 2.62 6.68 4.67 10.2 6.81 5.18 3.31 7.38 5.54 10 11 3.19 2.88 3.19 2.88 6 5l-1 2-2.35-1.87C569.06 118.23 527.74 102.4 483 97l-3.21-.4c-52.3-5.18-103.89 8.9-149.31 34.15C328 132 328 132 326 132v2c-2.6 1.8-5.18 3.48-7.87 5.13l-2.27 1.41C310.27 144 310.27 144 308 144l-1 3q-2.97 2.05-6 4c-8.65 6.6-8.65 6.6-12.18 10.25C287 163 287 163 285 163v2c-1.68 1.7-1.68 1.7-3.87 3.56l-2.19 1.88C277 172 277 172 275 173c3.34-13.38 12.9-21.2 23.23-29.64 2.77-2.36 2.77-2.36 5.64-5.8 5.23-5.95 11.1-9.61 17.99-13.28 2.14-1.28 2.14-1.28 5.51-4.22 6.71-5.67 14.36-9.21 22.63-12.06 7.67-2.78 7.67-2.78 11-5q3.51-.99 7.06-1.81 9.26-2.24 18.44-4.75l4.34-1.2C395 94 395 94 398.96 92.45c4.43-1.58 8.57-2.33 13.23-3l2.58-.37a414 414 0 0 1 22.51-2.42c32.23-2.76 32.23-2.76 45.72.35"/><path fill="url(#rg)" d="m0 0 26.2.02 53.68.05v1l-4.05.15-5.26.23-2.67.1c-6.68.3-6.68.3-10.02 2.52.31 2.63.31 2.63 1 5h-2.64q-31.84-.1-63.68-.15l-30.8-.07q-13.42-.05-26.84-.06-7.1 0-14.2-.03-6.7-.04-13.4-.03l-7.22-.03c-18.78.05-31.65 6.83-46.32 18.17-2.74 2.08-5.53 4-8.4 5.89a630 630 0 0 0-16.25 11.13q-9.18 6.46-18.44 12.8-8.16 5.6-16.25 11.32-1.04.75-2.13 1.5l-10.82 7.7C-242.7 94.5-242.7 94.5-250.12 96.08l-3-3c2.13-4.26 3.84-5.36 7.84-7.72 3.26-1.93 6.35-4.12 9.47-6.28l4.17-2.88 2.2-1.52q6.22-4.29 12.44-8.53l2.4-1.65q4.77-3.27 9.58-6.46c4.76-3.21 9.34-6.68 13.95-10.1 2.8-2.02 5.58-3.96 8.45-5.86 4.16-2.75 8.18-5.66 12.19-8.62a912 912 0 0 1 25.75-17.94l3.84-2.63c7.09-4.76 13.55-8.3 21.72-10.8l3-1q3.81-.24 7.62-.32l2.43-.07 8.27-.18 2.97-.06C-63.23-.21-31.61-.05 0 0" transform="translate(643.12 665.928)"/><path fill="#323138" d="M692 374c4.39 8.77-1.1 20.18-4 29l-.8 2.82c-10.17 34.45-38.28 61.39-70.2 76.18-21.22 8.74-42.08 11.25-64.75 11.4l-7.02.1q-5.1.1-10.18.12l-3.18.08c-7.3-.01-7.3-.01-10.42-3.73L520 487c-5.19-.3-11.49 3.74-16 6-9.53.99-14.87.46-22-6h-3l.19 3.31C479 494 479 494 476 497c-2.5-.31-2.5-.31-5-1h-3l.69 3.56c.31 4.44.31 4.44-1.15 7.5-2.06 5.28-1.92 9.88-1.85 15.5l.01 3.47q.02 5.67.08 11.33 0 3.96.03 7.9.03 10.4.1 20.8.11 16.63.16 33.25l.08 11.6.03 7.14.04 3.23A80 80 0 0 1 464 640l-.6 3.53A40 40 0 0 1 461 652c-3.5 1.63-3.5 1.63-7 2l-3 2a54 54 0 0 1 4.94-8.12c7.99-12 7.11-26.06 7.06-39.94q-.02-26.82.18-53.62.07-7.88.1-15.74 0-7.74.09-15.48l.02-5.83c.02-23.03.02-23.03 7.05-29.52l2.56-1.31 2.56-1.38c5.04-2.19 9.55-2.2 14.96-2.22l17.12-.1 25.34-.14q7.76-.03 15.52-.1l5.87-.03c38.98-.07 77.1-12.51 104.41-41.35C661 439 661 439 663 439l2-4q3.01-4.11 6.13-8.15c1.93-2.94 2.8-5.52 3.87-8.85q1.8-3.31 3.69-6.56c6.36-11.7 10.22-24.52 13.31-37.44"/><path fill="#302d35" d="m213.06 203.88 4.95.23 4.78.26 4.27.22c3.87.4 7.24 1.26 10.94 2.41l6 1 2 1c-3.61 2.4-5.16 2.22-9.45 2.16l-4.05-.04-4.4-.06-9.27-.08q-7.29-.07-14.58-.17c-34.48-.45-34.48-.45-51.25 4.19l-4 1v2c-1.84 1.23-1.84 1.23-4.38 2.63-8.97 5.23-15.57 10.96-21.62 19.37l-3 1c-.56 2.13-.56 2.13-1 5l-2 7-2.13 7.94-1.07 4.03-.8 3.03h-2q.09 66.16.23 132.34l.03 15.63v3.14l.09 50.35q.03 25.85.1 51.7.04 15.93.05 31.87 0 10.95.05 21.88l.02 12.61q0 6.86.03 13.7l-.01 4c.1 14.17 3.45 25.48 10.41 37.78l1.81 3.23c4.79 7.86 10.57 12.73 18.19 17.77l3.15 2.15A56 56 0 0 0 155 671l3.31 1.55c14.24 5.6 34.12 2.56 49.19 2.51l8.02-.01L235 675c-4 2-5.77 2.29-10.12 2.41l-3.73.12-4.03.1-4.14.1a1602 1602 0 0 1-32.83.5c-9.53 0-19.35-.33-28.03-4.67l-2.72-1.34L147 671l-3.25-1.44c-3.68-2.09-6.6-4.74-9.75-7.56l-3.31-2.5c-11.84-10.22-20.78-26.48-22.4-41.95C108 615 108 615 107 613q-.02-5.66.12-11.32l.15-7.3.08-3.93a3458 3458 0 0 0 .86-73.2q.03-5.25.02-10.5l.02-3.14c-.01-4.6-.16-7.42-2.25-11.61a70 70 0 0 1 2-11c1.25-7.52 1.26-14.95 1.31-22.56l.09-4.23.03-4.09.04-3.7c-.56-4.05-2.1-6.15-4.47-9.42.15-2.56.15-2.56 1-5l.75-2.44.81-2.56c2.04-7.36 2.08-14.72.96-22.25-.77-5.58-.9-11.18-1.13-16.8-.29-6.74-.29-6.74-1.39-8.95-.23-5.54-.23-5.54 1-8q.15-5.59.13-11.16V338.2c.01-13.33-.28-26.61-.9-39.93-.3-6.72-.41-13.43-.42-20.15l-.03-3.47c-.05-24.46 10.5-42.22 28.76-57.83 10.42-7.88 22.63-11.47 35.46-12.83l3.81-.62c13.02-1.17 26.23-.2 39.25.5"/><path fill="url(#cg)" d="m0 0 6.17-.02 12.85-.02q8.24 0 16.47-.06 6.36-.03 12.71-.02 3.04 0 6.08-.03 4.23-.02 8.46 0h4.86c3.93.49 3.93.49 6.45 2.17 1.83 2.86 1.96 4.52 1.93 7.91v3.4l-.06 3.65-.02 3.75q-.04 5.92-.12 11.86l-.06 8.03q-.05 9.87-.2 19.72h-3l-.07-3.15a9269 9269 0 0 0-.77-29.07q-.15-4.76-.2-9.5l-.11-4.38-.06-3.9-.78-3c-4.89-2.3-9.53-2.27-14.86-2.3l-2.64-.01Q48.73 5 44.41 5l-6.04-.02-12.67-.02q-8.05 0-16.1-.06-6.24-.02-12.5-.02l-5.92-.03c-18.47-.13-34.62 2.97-51.28 11.3-2.37 1.19-2.37 1.19-4.37 1.19l-2 4c-2.21 1.7-2.21 1.7-4.81 3.37-4.19 2.8-7.04 5.68-10.2 9.63l-2.68 1.75c-10.33 7.01-16.4 16.45-22.31 27.25l-1.69 2.82c-8.28 14.76-11.12 33.07-11.86 49.75l-.12 2.86c-.55 13.45-.57 26.91-.65 40.37l-.06 8.72-.16 22.71-.16 23.27-.3 45.5h-3q-.11-28.88-.16-57.74-.01-13.41-.07-26.82-.05-11.7-.05-23.4 0-6.18-.04-12.36c-.16-32.79-.16-32.79 3.32-47.68l.6-2.95c3.5-16.07 10.6-32.48 21.4-45.05l2.04-2.62c4.28-5.38 8.61-10.15 13.91-14.53 2.05-1.85 2.05-1.85 3.95-4.42 2.46-2.86 4.4-3.7 7.91-5a69 69 0 0 0 10.19-4.75c3-1.68 3-1.68 7-1.68v-2q4.59-1.45 9.19-2.88l2.55-.82C-28.6.31-14.62.01 0 0" transform="translate(358.473 312.664)"/><path fill="url(#rg)" d="M0 0c5.06 3.56 6.84 5.15 7.38 11.31C6.94 16.7 6.07 17.71 2 21c-3.16 4.75-2.33 9.8-2.31 15.38l-.05 3.44v3.33l-.01 3.04C.06 49.46 1.06 51.35 3 54c2.59 1.3 4.47 1.13 7.36 1.14l3.4.02 3.7.02 7.68.07 12.16.08q5.85.02 11.72.1l3.66-.01c11.36.16 16.05 5 23.75 12.77l2.38 2.4 4.97 4.98a2896 2896 0 0 0 12.46 12.5l2.31 2.32c6.58 6.64 6.58 6.64 6.54 12.76v3.26l-.02 3.53q0 3.7.03 7.4.04 5.83 0 11.67-.02 5.62.03 11.25l-.05 3.5c.12 8.05 1.97 11.9 7.92 17.24l3.46 3.59 3.35 3.35 3.4 3.4c3.82 3.64 5.51 3.8 10.67 3.98l10.97.37 9.15.31v4q-6.75.29-13.5.44l-3.84.18c-8.8.16-12.9-1.01-18.66-7.62l-4.25-4.11-4.19-4.2-2.17-2.17c-6.52-6.53-6.52-6.53-6.48-12.67v-3.26l.02-3.53q0-3.7-.03-7.4-.04-5.83 0-11.67.02-5.63-.03-11.25l.05-3.5C100.8 101.13 98.96 97.4 93 92l-3.42-3.55-3.54-3.54-1.9-1.9-3.95-3.95-6.05-6.05-3.85-3.85-3.51-3.51c-3.74-3.56-5.18-3.77-10.2-3.74h-3.44l-3.74.02-7.8-.03q-6.16-.03-12.33 0-5.93.02-11.87-.03l-3.7.05C5.3 61.8 1.66 60.26-4 54c-1.36-2.71-1.2-4.97-1.29-8l-.17-3.69q-.16-3.82-.26-7.66c-.4-7.62-1.37-12.2-6.72-17.78C-14 15-14 15-14.75 10.81-13.85 6.25-12.3 4.21-9 1-5.85-.57-3.48-.35 0 0" transform="translate(725 96)"/><path fill="url(#rg)" d="M0 0q5.16.12 10.33.17l6.6.13 3.1.04c7.09.22 7.09.22 10.37 2.72l1.33 1.96-2 4c-3.84.38-7.4.5-11.23.47l-3.44.02q-7.3.03-14.6 0c-25.14-.02-44.8 2.35-62.7 21.63-9.07 10.84-13.23 23.7-13.34 37.75l-.08 4.93-.07 7.66q-.03 3.73-.1 7.47l-.04 4.47c-.4 3.6-.4 3.6-3.4 6.6l-4-2c-.5-3.71-.5-3.71-.5-8.52v-2.6q0-2.73.03-5.46.04-4.13 0-8.25c.02-9.4.52-18.15 3.47-27.17l.78-2.75q1.06-3.64 2.22-7.25l.87-2.88c1.5-2.83 3.62-4.15 6.13-6.12l1.62-2.69c5.02-7 12.68-12.54 20.38-16.31h2v-2C-30.88.35-16.23-.41 0 0" transform="translate(195.274 209.981)"/><path fill="url(#rg)" d="m0 0 2.75 1.44C5.72 3.5 7.07 5.95 9 9l2.83 3.07c3.7 4.26 5.78 8.97 7.98 14.12l1.2 2.7c5.37 12.25 5.17 24.78 5.18 37.99l.04 3.54c0 5.89-.16 10.98-2.23 16.58h-1l-.06-3.07-.32-14-.09-4.82C21.84 37.07 21.84 37.07 14 27v-2h-2q-1.92-2.5-3.69-5.12C-.07 8.12-11.95 1.57-25-4l-2-1q-3.52-.18-7.06-.19l-3.85-.04L-41-5l-1 2a427 427 0 0 0 20.27 6.97C-18.9 5.03-16.53 6.37-14 8l-2 1q-3.17-1.42-6.33-2.88c-8.7-3.64-17.42-4.56-26.75-4.56a2623 2623 0 0 0-24.19-.21q-3.23-.04-6.47-.05C-85.13 1.25-89.92 1.03-95-1c-1.06-2.5-1.06-2.5-1-5 2.56-2.56 3.81-2.3 7.38-2.5 4.08-.22 5.82-.6 9.62-2.5 28.6-5.32 54.17-4.99 79 11" transform="translate(762 219)"/><path fill="#58595c" d="m679.44 579.6 3.2-.01 3.36.03 3.35-.03 3.21.01 2.94.01c2.5.39 2.5.39 5.5 3.39.4 2.43.4 2.43.43 5.3l.04 3.2-.03 3.37-.03 3.44c-.3 13.68-2.7 23.5-13.41 32.69-4.73 2.97-8.37 4.8-14 4-2-2-2-2-2-7 2.08-2.03 2.08-2.03 4.81-3.94 3.96-2.98 6.76-5.13 8.19-10.06-.31-2.88-.31-2.88-1-5l-4.81-.31c-4.35-.29-4.91-.41-8.2-3.69-.38-2.31-.38-2.31-.39-5l-.01-2.94.04-3.06-.04-3.06.01-2.94.01-2.69c.88-5.26 4.27-5.7 8.83-5.7m-42-.01 3.2-.01 3.36.03 3.35-.03 3.21.01 2.94.01c2.5.39 2.5.39 5.5 3.39.57 4.8.23 9.62.06 14.44l-.03 3.99c-.33 10.9-2.88 19.96-10.97 27.63-4.78 3.72-8.78 6.12-15 5.63L630 634c-.81-2.19-.81-2.19-1-5 2.57-3.14 5.54-5.44 8.69-8 4.48-4.06 4.48-4.06 5.3-8l-.99-4-4.81-.31c-4.35-.29-4.91-.41-8.2-3.69-.38-2.31-.38-2.31-.39-5l-.01-2.94.04-3.06-.04-3.06.01-2.94.01-2.69c.88-5.26 4.27-5.7 8.83-5.7"/><path fill="url(#rg)" d="M0 0c1 2.81 1 2.81 1 6-1.9 2.48-3.95 3.97-6.5 5.75C-9.4 15.26-12 19.68-12 25c3.42 1.71 7.23 1.62 11 2v2l3 1q.12 5.15.19 10.31l.07 2.96C2.34 50.66 2.34 50.66-1 54c-2.5.39-2.5.39-5.44.4l-3.2.01-3.36-.03-3.35.03-3.21-.01-2.94-.01C-25 54-25 54-28 51c-.71-4.44-.56-8.94-.56-13.44l-.11-3.7C-28.72 23.34-25.85 14.81-18.62 7-13.14 2.46-7.2-1.8 0 0" transform="translate(232 251)"/><path fill="url(#rg)" d="M0 0c2 2 2 2 1.94 4.38C.7 7.83-1.06 8.86-4 11c-4.38 3.96-8 7.84-8 14 2 1 2 1 6.44 1.38C-1 27-1 27 2 30c.3 3.57.42 6.93.38 10.5l.03 2.92C2.38 50.62 2.38 50.62-1 54c-2.4.39-2.4.39-5.22.4l-3.07.01-3.21-.03-3.2.03-3.08-.01-2.82-.01C-24 54-24 54-27 51c-.37-2.38-.37-2.38-.36-5.2v-3.1l.05-3.26-.01-3.18c.08-11.65 1.39-21.81 10.28-30.08C-11.38 1.7-7.14 0 0 0" transform="translate(190 251)"/><path fill="#36353c" d="m604 398 4 1c-5.75 6-5.75 6-8 6v2l-5 1v2c-2.57 1.4-2.57 1.4-6.12 2.94l-3.45 1.52c-10.84 3.76-21.36 4.99-32.78 4.97a4313 4313 0 0 1-26.71.14l-24.34.1-24.87.12q-24.37.13-48.73.21l1-2c3.87-.7 7.7-.99 11.62-1.18l3.94-.2 3.76-.14c3.68-.48 3.68-.48 6.92-1.97 11.64-4.68 26.92-2.64 39.29-2.57h5.18l18.96.07 23.53.08c35.6.07 35.6.07 46.4-6.73 2.4-1.36 2.4-1.36 5.9-1.24 4.55-.16 5.67-1.7 8.5-5.12z"/><path fill="#2e2c34" d="m191.7 219.8 3.25.01 10.18.06 6.94.03 16.93.1v1l-3.07.15-4.05.22-4.01.22c-3.87.41-3.87.41-6.62 1.4-4.94 1.54-9.92 1.62-15.06 1.95-19.37 1.44-38.96 3.01-52.19 19.06a176 176 0 0 0-4.59 6.87c-1.41 2.13-1.41 2.13-4.1 5.32-3.96 4.82-5.68 9.54-6.87 15.62l-.76 3.75L127 279l-1 4.31-1 4.69-.75 3.2c-1.91 9.11-2.56 17.98-2.8 27.26l-.12 4.13c-.55 20.52-.68 41.05-.86 61.57l-.16 16.92L120 434h-1a80083 80083 0 0 1-.08-81.84l-.03-34.62v-13.41l-.01-3.94c.01-15.3.43-28.25 7.12-42.19l1.6-3.44c8.38-16.82 21.06-26.62 39.07-31.77a100 100 0 0 1 25.03-2.99"/><path fill="url(#rg)" d="M0 0c5.54 2.77 8.06 7.17 10 13q.14 2.82.14 5.63l.02 3.5.02 3.79.07 7.93.08 12.5q.02 6.04.1 12.07l-.01 3.75c.12 8.37.84 14.5 7.4 20.33C24.14 84.77 30.33 84.3 37 84l-1 6 4 2c-8.74 3.38-18.75 2.26-27-2C5.46 84.36 1.72 77.2.63 67.82Q.44 62.64.5 57.45l-.03-3.81Q.43 47.66.44 41.69q0-6-.04-12a615 615 0 0 1-.01-7.45C.33 11.94.33 11.94-3 7l3-1z" transform="translate(355 671)"/><path fill="#09090c" d="M2 555h1v53H2zm0-48h1v34H2zm0-60h1v16H2zm0-22h1v14H2zm0 208h1v13H2zm0-145h1v11H2zm0-14h1v9H2zm0-90h1v8H2zm0 230h1v7H2zm0-238 1 4Zm0-23 1 4Z"/></svg>
