<svg xmlns="http://www.w3.org/2000/svg" width="512" height="512" aria-labelledby="t d" viewBox="0 0 900 900"><title id="t">rePROMPTer 2</title><desc id="d">Chrome P speech-bubble with red refresh arrows and quotation marks — transparent-background mark for in-app use.</desc><defs><linearGradient id="cg" x1="0" x2="0" y1="0" y2="1"><stop offset="0" stop-color="#f6f6f8"/><stop offset=".5" stop-color="#cfcfd3"/><stop offset="1" stop-color="#8c8c90"/></linearGradient><linearGradient id="rg" x1="0" x2="0" y1="0" y2="1"><stop offset="0" stop-color="#ff6f6d"/><stop offset=".5" stop-color="#d23234"/><stop offset="1" stop-color="#8e1d20"/></linearGradient><linearGradient id="g-body" x1="450" x2="450" y1="0" y2="900" gradientUnits="userSpaceOnUse"><stop offset="0" stop-color="#2c1515"/><stop offset=".5" stop-color="#1a0a0a"/><stop offset="1" stop-color="#0f0505"/></linearGradient><radialGradient id="g-sheen" cx="450" cy="211" r="478" gradientUnits="userSpaceOnUse"><stop offset="0" stop-color="#7a5757" stop-opacity=".5"/><stop offset=".55" stop-color="#3a2020" stop-opacity=".16"/><stop offset="1" stop-color="#3a2020" stop-opacity="0"/></radialGradient><radialGradient id="g-vig" cx="450" cy="478" r="464" gradientUnits="userSpaceOnUse"><stop offset=".62" stop-opacity="0"/><stop offset="1" stop-opacity=".42"/></radialGradient><clipPath id="clip"><use href="#sq"/></clipPath><filter id="glow" x="-30%" y="-30%" width="160%" height="160%"><feGaussianBlur stdDeviation="12.3"/></filter><rect id="sq" x="19.34" y="19.34" width="861.32" height="861.32" rx="186.33" ry="186.33"/></defs><g clip-path="url(#clip)"><path fill="#9c9c9f" d="M416.4 221.6h29.9l26.9-.1h51.3l14.2-.1C586 221 630 231 663 268c22.2 26.3 32 56.4 31 90.4v6.3a107 107 0 0 1-16.8 50.9c-2.2 3.4-2.2 3.4-3 6.7-2.6 7.9-9.4 14-15.2 19.7l-2.4 2.5A132 132 0 0 1 580 482l-3.1.5q-6.5.7-13 .7h-17.2l-25.6.2-15.7.1h-14.2l-4.8.1A29 29 0 0 0 470 490h-2a61 61 0 0 0-3.4 21v3.2l-.1 10.4v7.3l-.2 19v19.4l-.3 28.4v20.7a51 51 0 0 1-16 39.6c-3 1.7-3 1.7-6 3l-4 2.6a48 48 0 0 1-26.1 5.7l-4.7.1c-4.7-.5-6-1-9.2-4.4-.6-3.8-.6-3.8-.6-8.6V466.9c0-15.5 1.3-27.3 13.4-38.6 6.9-5.8 16-9.5 25-9.5h19.7l13.5-.1h38.5l23.6-.1h9c18.7 0 35.7-.1 52.9-8.6h2v-2l5-1v-2l5.7-5a61 61 0 0 0 21.5-48.2A103 103 0 0 0 621 324h-2l-1.2-3.7c-1.7-4-2.6-5.6-5.8-8.3l-1.9-2a78 78 0 0 0-11.1-9v-2h-3v-2l-2.1-.2c-2.9-.8-2.9-.8-5.5-2.7-11.8-7.4-27.2-7.8-40.6-7.7H393.2c-3.2-.4-3.2-.4-7.2-3.4a86 86 0 0 1-.5-10.5V243c.2-7.4 1.1-12.7 6.5-18.1 7.7-4 15.8-3.4 24.4-3.4" transform="matrix(.83 0 0 .83 76.5 76.5)"/><path fill="url(#rg)" d="m0 0 4 2c12.2 6.7 23 14.7 33.6 23.8a14 14 0 0 0 8.1 3.8c4.4-2.2 5.7-5 8-9.2C55 18 55 18 58 15c5 0 5 0 6.7 1.8A69 69 0 0 1 68.4 31l.7 3.3 2 10.2 1.4 6.9 3 15.2 1 5q.8 4.6.5 9.4c-3 3-3 3-6 3.4q-7.3-.9-14.2-3.4l-2.9-.9-9.2-3-14.9-4.6-2.6-.9-2.6-.8-5.4-1.6C14.8 68 12.3 67.2 9 64c.6-4 2.1-5 5.5-7.5l4.1-2.3 4.2-2.4L26 50C21.7 34.4-8.4 21.9-22 15.5c-61.5-28-133.5-24-194 4.5a215 215 0 0 0-53.3 36.5l-6.8 6C-296 79.8-296 79.8-296 88l3.4.8C-289 90-289 90-287 94c-2.6 2.6-3.8 2.3-7.5 2.4h-3.7l-4.2.2h-4.5q-14.7.4-29.4.5l-18 .2-13.3.1-8.5.1h-3.9c-20 .3-40.4 5.5-54.2 20.9A96 96 0 0 0-447 142l-1.7 3.5c-4.7 16-2.5 35.2-2.5 51.6v156l-.1 47.5v77.1A66 66 0 0 0-430 529c9.8 7.7 22 13 34.5 13.2h7l3.9.1 13.1.2 9.3.1 55.6.6 10.4.1 49.7.4 8.3.1h4.8c17 .6 17 .6 23 8.2a24 24 0 0 1 4.5 14.6l.1 15.2.1 12.5.1 12.1v3.8c.1 8.4.8 14.6 7.5 20.3A31 31 0 0 0-173 629l4.2-3.2q6.9-5.4 14.2-10.3l2.5-1.7q6.4-4.4 13-8.5 7.6-5 15-11 3.9-3 8.2-5.5 7.4-4.9 14.6-10.2a592 592 0 0 1 31.5-21.8l5.5-3.7 2.8-1.8 2.3-1.6a56 56 0 0 1 27.1-6.3h3.5l11.2-.1 8.1-.1L17 543h9l45.9-.2h4.6l23.7-.1 23.5-.1h24.5A59 59 0 0 0 192 522q1.6-3.4 3-7l3.6-7c6.7-13.4 6.6-27.1 6.5-42v-27l.1-42.4V289.5l.1-48.5v-78.7c0-11-1.4-22-6.8-31.7a95 95 0 0 1-5-10.2c-5.9-13-20.2-17.5-33-21a75 75 0 0 0-18.6-1.8l-24.2-.2-6.4-.1A40 40 0 0 1 96 95c-1-2.5-1-2.5-1-5 2.6-2.6 3.8-2.3 7.4-2.5 4-.2 5.8-.6 9.6-2.5 28.6-5.3 54.2-5 79 11l2.8 1.4c3 2.1 4.3 4.6 6.2 7.6l2.8 3a51 51 0 0 1 8 14.2l1.2 2.7c5.4 12.2 5.2 24.8 5.2 38v10c-.2 3.1-.2 3.1-1.2 6-1.4 5.6-1.3 11-1.2 16.6V241l.1 28.4.1 46.3v33.6l.1 11.2v2.8l.1 46v28.4l.1 21.7v9c.2 27.3-1.8 49.2-22.9 69a66 66 0 0 1-43.7 15.8h-3.8q-28.7-.1-57.4-.5l-59.7-.5-15.4-.1-33.2-.3a76 76 0 0 0-53.3 18.1q-4 3-8.4 5.9l-16.3 11.1q-9.1 6.5-18.4 12.8l-18.4 12.8-10.8 7.7c-22.5 16.1-22.5 16.1-29.6 17.9v2a33 33 0 0 1-27-2 30 30 0 0 1-12.4-22.2l-.1-10.4v-15.8l-.1-12v-13.9c-.5-3.2-1.7-5-3.4-7.7v-2a33 33 0 0 0-13-2.2h-38.8q-32 0-64.2.5h-6.1l-26.6.5-11 .1-7.4.2c-23 .3-23 .3-32.9-6.1l-4-1.4a35 35 0 0 1-11-7.6l-3.8-2.6a40 40 0 0 1-10.4-12.4l-1.6-2.5a64 64 0 0 1-10.4-33.5V451l-.2-47.2V398l-.3-100.2-.2-59.5v-2.8l-.1-44.1v-25.7l-.1-4A90 90 0 0 1-460 145h2l.4-4.1A44 44 0 0 1-455 130l1.6-4.7c2.4-7.3 2.4-7.3 4.7-9.1 2.7-2.2 2.7-2.2 4.3-4.9A55 55 0 0 1-424 95h2v-2c13.4-5 26.4-6.4 40.6-6.1h9.4l14.5.3 14.2.2h4.5l4 .1h3.7c6-1 8.9-6.4 12.3-11a271 271 0 0 1 12.7-16C-304 58-304 58-302 54c2.2-2 2.2-2 4.9-4q3.9-2.9 7.3-6.2C-288 42-288 42-286 42v-2q8.1-7.3 17-13.8l7.6-5.9c12-9.3 12-9.3 16.4-9.3V9c2.3-1.4 2.3-1.4 5.4-3l3.5-1.8 3.7-2 3.8-1.9c8-4 16.1-8.2 24.6-11.3l2.5-1A247 247 0 0 1 0 0" transform="matrix(.83 0 0 .83 550.43 178.59)"/><path fill="url(#cg)" d="M0 0h56.8l27.6-.1H108l14.2-.1c47.3-.2 91.4 9.8 124.3 46.6 22.2 26.3 32 56.4 31 90.4v6.3a118 118 0 0 1-34 74.3l-1-2 3.6-4.6c17.7-21.5 28.9-51.6 24-79.3l-.7-3.3-.5-3.4a26 26 0 0 0-12.4-19.4c-4 .2-6.4.6-9.8 3-3.1 2-4.7 2.4-8.3 3a16 16 0 0 0-9.9 5l-2.6 2.3c-3.7 4.3-5 9-6.3 14.5a100 100 0 0 1-21.1 42.2l-1.6 2c-13.8 17-37.2 23.9-58.4 24.3H134l-9.5.2c-9 .2-17.5.9-26.3 2q-7.2 1-14.3 1a340 340 0 0 0-26.7 2.1q-5 .4-10 .4c-4.6 0-8.1.8-12.6 2a31 31 0 0 1-12 .3c-5.3-.4-7 1.5-11 4.7l-3.3 1.3a29 29 0 0 0-10 8l-3 3.3a39 39 0 0 0-7.3 22l-.4 3a345 345 0 0 0-2.1 41.2v145.3c0 3 0 3 1 6-3 0-3 0-5-2l-.2-8.4V351l-.1-35v-64.6l-.1-6.2c-.1-15.5 1.3-27.2 13.2-38.5a40 40 0 0 1 25.1-9.5h33.2l38.5-.2h32.6c18.7 0 35.7-.1 52.9-8.6h2v-2l5-1v-2l5.7-5a61 61 0 0 0 21.5-48.2 103 103 0 0 0-6.2-27.8h-2l-1.3-3.7c-1.6-4-2.6-5.6-5.7-8.3l-1.9-2a78 78 0 0 0-11.1-9v-2h-3v-2l-2.1-.2c-3-.8-3-.8-5.5-2.7-11.8-7.4-27.2-7.8-40.7-7.7H-23.2c-3.2-.4-3.2-.4-7.2-3.4a86 86 0 0 1-.5-10.5V21.5c.2-7.4 1.1-12.7 6.5-18C-16.7-.7-8.6 0 0 0" transform="matrix(.83 0 0 .83 422.112 260.428)"/><path fill="#57585b" d="M358.5 312.7h67.7c3.8.3 3.8.3 6.8 2.3v2h2v57h-2v2q-6.3 1.2-12.7 1h-17.2l-14.2-.2h-13.7l-4.2-.1c-21.6 0-41.1 5.2-56.3 21.2-12.4 15.4-16 31.4-16 50.7v4.7l-.1 12.7v13.3l-.2 25.2-.1 28.6-.3 58.9h-4v-4.6l-.6-85.8-.2-19.4V479c-.2-16-.2-16-3.2-22l-2.2-9.3c-.8-2.7-.8-2.7-2.8-4.7-8.6-2-8.6-2-12.2.5l-3.9 3.9c-1.9 1.6-1.9 1.6-5.9 2-5.2.8-6.8 2.8-10.2 6.6-1.8 2-1.8 2-4.7 4-4.4 4.2-4.2 10.3-4.5 16-.3 3.7-.6 6-2.1 9.4-5.2 12.5-2.7 29.8-2.7 43.1v22.8l-.1 19.8v35.6c0 7 0 7 3.3 10.3q4.5.5 9 .5h2.7l8.5.2h5.7l14.1.3v3l-17.7.2-6 .1h-8.6l-2.7.2c-5.3 0-8.3-.6-12-4.5-1.5-3-1.1-6-1.1-9.5v-15.8l-.1-24.9v-64.5l-.1-26.8V439c-.2-28.9 5.9-60.4 25.3-83l2-2.6a94 94 0 0 1 14-14.6c2-1.8 2-1.8 3.9-4.4a16 16 0 0 1 8-5 69 69 0 0 0 10.1-4.7c3-1.7 3-1.7 7-1.7v-2l9.2-2.9 2.6-.8a141 141 0 0 1 42.7-4.6" transform="matrix(.83 0 0 .83 76.5 76.5)"/><path fill="url(#rg)" d="m0 0 4 2c12.2 6.7 23 14.7 33.6 23.8a14 14 0 0 0 8.1 3.8c4.4-2.2 5.7-5 8-9.2C55 18 55 18 58 15c5 0 5 0 6.7 1.8A69 69 0 0 1 68.4 31l.7 3.3 2 10.2 1.4 6.9 3 15.2 1 5q.8 4.6.5 9.4c-3 3-3 3-6 3.4q-7.3-.9-14.2-3.4l-2.9-.9-9.2-3-14.9-4.6-2.6-.9-2.6-.8-5.4-1.6C14.8 68 12.3 67.2 9 64c.6-4 2.1-5 5.5-7.5l4.1-2.3 4.2-2.4L26 50C21.7 34.4-8.4 21.9-22 15.5c-61.5-28-133.5-24-194 4.5a215 215 0 0 0-53.3 36.5l-6.8 6C-296 79.8-296 79.8-296 88l3.4.8C-289 90-289 90-287 94c-2.6 2.6-3.8 2.3-7.5 2.4h-3.7l-4.2.2h-4.5q-14.7.4-29.4.5l-18 .2-13.3.1-8.5.1h-3.9c-20 .3-40.4 5.5-54.2 20.9A96 96 0 0 0-447 142l-1.6 3.8a40 40 0 0 0-2 12.3l-.2 4.5-.4 9.4-.2 4.6-.1 4c-.5 3.4-.5 3.4-3.5 6.4l-4-2c-.5-3.7-.5-3.7-.5-8.5v-16.3c0-9.4.6-18.2 3.5-27.2l.8-2.8 2.2-7.2.9-2.9c1.5-2.8 3.6-4.1 6.1-6.1l1.6-2.7A55 55 0 0 1-424 95h2v-2c13.4-5 26.4-6.4 40.6-6.1h9.4l14.5.3 14.2.2h4.4l4.1.1h3.7c6-1 8.9-6.4 12.3-11a271 271 0 0 1 12.7-16C-304 58-304 58-302 54c2.2-2 2.2-2 4.9-4q3.9-2.9 7.3-6.2C-288 42-288 42-286 42v-2q8.1-7.3 17-13.8l7.6-5.9c12-9.3 12-9.3 16.4-9.3V9c2.3-1.4 2.3-1.4 5.4-3l3.5-1.8 3.7-2 3.8-1.9c8-4 16.1-8.2 24.6-11.3l2.5-1A247 247 0 0 1 0 0" transform="matrix(.83 0 0 .83 550.43 178.59)"/><path fill="url(#rg)" d="m0 0 20.2 5.8 6.5 1.8 3 .9c10.1 2.9 10.1 2.9 14 5.5l1 4c-3.5 4.7-8.5 7-13.7 9.5-2.3 1.4-2.3 1.4-3.3 4.4a85 85 0 0 0 20 18l3.3 2.5A226 226 0 0 0 238.2 84a210 210 0 0 0 43.5-17l4.4-2.3q12.8-6.5 24.6-14.8l3.3-2.2a240 240 0 0 0 47.6-43.4l3.1-3.4 3 1-1.5 2.1-2 2.7-2 2.7c-1.5 2.6-1.5 2.6-1.5 6.6 12.1 3 12.1 3 16.6.6a66 66 0 0 0 5.4-5.6l4-3c-6.8 19.3-31.2 38.7-47 51l-2.1 1.8a247 247 0 0 1-81.9 44.2l-2.6.8A246 246 0 0 1 50.3 81.7 259 259 0 0 1 37.7 73l-3.4-2.4a179 179 0 0 1-17.1-14.4L14.7 54l-2.5-2.3c-2.5-1.7-2.5-1.7-5-1.8-3.8 1.8-5.3 4.6-7.5 8-4.6 7-4.6 7-9 9.1-4.3-3.4-4.9-6.5-5.8-11.8l-.9-4.8-.8-5-1-4.9-2.5-14.4-.9-4.9-.8-4.5-.7-4C-24.4 2-24.4 2-21.7-2.6-15.8-6-6.5-1.8 0 0" transform="matrix(.83 0 0 .83 303.339 657.5)"/><path fill="#2e2c34" d="M285 442c4.6 3.4 5.2 9 6.4 14.4a14 14 0 0 0 1.6 4.6q1.3 10.4 1.2 21.2v3.6l.1 11.8v8.1l.2 21.5.2 21.9.3 42.9h3l.1 9v2.6A35 35 0 0 1 296 618c-4 3-4.6 3.4-9.2 3.2l-4.8-.2v-3h-3.6q-6.6.2-13.3.2l-5.7.1-8.3.1h-2.6c-3.3 0-5.9 0-8.7-1.8-2.8-4-2.3-8.3-2.3-13v-21.1l.1-15.5.1-19.6v-22.5c.2-34.3.2-34.3 4.3-42.9q.7-4 1-8.1c1-9 2.4-12.8 9.1-19.1l3.3-3.3c4.1-2.9 6.7-3 11.6-3.5 2.2-1.7 2.2-1.7 3.9-3.6 4.7-4.6 7.9-4 14.1-2.4" transform="matrix(.83 0 0 .83 76.5 76.5)"/><path fill="#58595c" d="M450 536c3.2 3.8 4.2 8.5 5.6 13.2l1.2 4.3c2.6 10 3.5 18.9 3.5 29.1v38.8c0 15.8-5.1 26.5-16.5 37.4a43 43 0 0 1-33.4 7.5C407 665 407 665 404 661c-.4-3.8-.4-3.8-.4-8.4v-10.8l.1-5.8a960 960 0 0 1 1.4-44.7c1.4-25.9 1.4-25.9 5.7-34l1.5-2.8c3.3-4.9 7-6.9 12.6-8.5a39 39 0 0 0 12.1-6l7-3c1-1 1-1 6-1" transform="matrix(.83 0 0 .83 76.5 76.5)"/><path fill="url(#rg)" d="m0 0 2.8 1.4C5.8 3.5 7 6 9 9l2.8 3a51 51 0 0 1 8 14.2l1.2 2.7c5.4 12.2 5.2 24.8 5.2 38v10C26 80 26 80 25 83c-1.4 5.6-1.3 11-1.2 16.6V145l.1 28.4.1 46.3v2.8l.1 44.8.1 46v28.4l.1 21.7v9c.2 27.3-1.7 49.2-22.9 69A64 64 0 0 1-37.7 457H-60l-2-6c4.8-3.6 6.8-3.4 12.8-3.4C-30 446.9-12 441 1 426l3-7 3.6-7c6.7-13.4 6.6-27.1 6.5-42v-27l.1-42.4V193.5l.1-48.5V66.3c0-11-1.4-22-6.8-31.7a95 95 0 0 1-5-10.2c-5.9-13-20.2-17.5-33-21a75 75 0 0 0-18.6-1.9l-24.2-.2h-6.4A40 40 0 0 1-95-1c-1-2.5-1-2.5-1-5 2.6-2.6 3.8-2.3 7.4-2.5 4-.2 5.8-.6 9.6-2.5 28.6-5.3 54.2-5 79 11" transform="matrix(.83 0 0 .83 708.96 258.27)"/><path fill="#595a5d" d="m638 701 3 1-1.5 2-2 2.7-2 2.7C634 712 634 712 634 716c12.1 3 12.1 3 16.6.7a66 66 0 0 0 5.4-5.7l4-3c-6.8 19.3-31.2 38.8-47 51l-2.1 1.8A248 248 0 0 1 529 805l-2.6.9A217 217 0 0 1 464 817v-3l-4-1c-1.9-1.7-1.9-1.7-3.7-3.7l-1.8-2.1a12 12 0 0 1-2.5-7.2c4-4 8-4 13.5-4.7l3-.4q5.2-.8 10.5-.9v-3l4.5-.9c25-5 48.7-11.2 71.5-23.1l4.4-2.2q12.8-6.6 24.6-14.8l3.3-2.3a240 240 0 0 0 47.5-43.3z" transform="matrix(.83 0 0 .83 76.5 76.5)"/><path fill="#38363d" d="M449 210.8h2.8q23.3.1 46.6 1.4 19.2 1 38.4 0A131 131 0 0 1 572 216l5.7 1c15.8 2.9 15.8 2.9 20.8 6.6 4.2 2.9 7.3 3.2 12.3 3.8A42 42 0 0 1 632 238l5.6 3a25 25 0 0 1 9.4 8l3.7 1.8a41 41 0 0 1 11 8.6l3.3 3.3q3.9 4.4 7 9.3l7.8 10.2a32 32 0 0 1 7 15.2A29 29 0 0 0 693 309c3.2 12.7 3.2 26.2 3.2 39.3v3.7q0 9-1.2 18h-2v-2.8c.7-43.5-8.8-79.2-41.9-109.9A148 148 0 0 0 593 227l-4-1.1c-17.2-4.2-35-3.5-52.7-3.4H412c-8 0-14 .3-20.9 4.5-4.6 6-4.2 11.5-4.2 18.8v9.9l-.1 10.3v9.6q0 3.7.3 7.4c3.7 2.5 5.6 2.3 10 2.3h43.5q18.7.2 37.5.2l40.5.1H536l10.9.1h15.9c3.1.3 3.1.3 6.1 2.3l-71.4.2h-62.1l-15.3.1h-30.9c-3.3-.3-3.3-.3-6.3-3.3l-1-9-1.4-6.8-2.2-13.3-.4-2.5c-1.8-11.7-1.4-20.5 6.5-29.6l3.5-3.8 2.3-3c3-3.6 6.1-3.4 10.7-4l3.8-.5a414 414 0 0 1 44.1-1.7" transform="matrix(.83 0 0 .83 76.5 76.5)"/><path fill="#302d35" d="m483 87 7.3 1.5 3.8.8q5.6 1 11.3 1.4c25.3 3 57 16 76.4 32.5q4.9 3.8 10.2 6.8c5.2 3.3 7.4 5.5 10 11 3.2 2.9 3.2 2.9 6 5l-1 2-2.3-1.9A241 241 0 0 0 483 97l-3.2-.4c-52.3-5.2-103.9 8.9-149.3 34.2-2.5 1.2-2.5 1.2-4.5 1.2v2q-3.9 2.7-7.9 5.1l-2.2 1.4c-5.6 3.5-5.6 3.5-7.9 3.5l-1 3-6 4c-8.6 6.6-8.6 6.6-12.2 10.3-1.8 1.7-1.8 1.7-3.8 1.7v2l-3.9 3.6-2.2 1.8C277 172 277 172 275 173c3.3-13.4 12.9-21.2 23.2-29.6 2.8-2.4 2.8-2.4 5.7-5.8 5.2-6 11-9.6 18-13.3 2.1-1.3 2.1-1.3 5.5-4.2A69 69 0 0 1 350 108c7.7-2.8 7.7-2.8 11-5l7-1.8q9.3-2.3 18.5-4.8l4.3-1.2C395 94 395 94 399 92.5c4.4-1.6 8.5-2.4 13.2-3l2.6-.4a414 414 0 0 1 22.5-2.4c32.2-2.8 32.2-2.8 45.7.3" transform="matrix(.83 0 0 .83 76.5 76.5)"/><path fill="url(#rg)" d="M0 0h79.9v1l-4 .2-5.3.3h-2.7c-6.7.4-6.7.4-10 2.6.3 2.6.3 2.6 1 5h-2.7l-63.6-.2h-30.8l-26.9-.1h-27.6l-7.2-.1c-18.8 0-31.7 6.8-46.3 18.2l-8.4 5.9-16.3 11q-9.2 6.6-18.4 12.9L-205.6 68l-2 1.5-11 7.7c-24.1 17.3-24.1 17.3-31.5 18.9l-3-3c2.1-4.3 3.8-5.4 7.8-7.7q4.9-3 9.5-6.3l4.2-2.9 2.2-1.5 12.4-8.5 2.4-1.7 9.6-6.5 14-10 8.4-6 12.2-8.5a912 912 0 0 1 25.7-18l3.9-2.6a76 76 0 0 1 21.7-10.8l3-1q3.8-.3 7.6-.3l2.4-.1 8.3-.2h3C-63.2-.2-31.6 0 0 0" transform="matrix(.83 0 0 .83 610.273 629.28)"/><path fill="#323138" d="M692 374c4.4 8.8-1.1 20.2-4 29l-.8 2.8C677 440.3 648.9 467.2 617 482a167 167 0 0 1-64.7 11.4l-7 .1-10.2.1-3.2.1c-7.3 0-7.3 0-10.4-3.7l-1.5-3c-5.2-.3-11.5 3.7-16 6-9.5 1-14.9.5-22-6h-3l.2 3.3c-.2 3.7-.2 3.7-3.2 6.7-2.5-.3-2.5-.3-5-1h-3l.7 3.6c.3 4.4.3 4.4-1.2 7.5-2 5.2-1.9 9.8-1.8 15.5v14.8l.1 7.9.1 20.8.2 33.2V618l.1 3.3A80 80 0 0 1 464 640l-.6 3.5a40 40 0 0 1-2.4 8.5c-3.5 1.6-3.5 1.6-7 2l-3 2a54 54 0 0 1 5-8.1c8-12 7-26 7-40l.2-53.6v-15.7q0-7.8.2-15.5v-5.8c0-23 0-23 7-29.5l2.6-1.4 2.6-1.3c5-2.2 9.5-2.2 15-2.3h17l25.4-.2 15.5-.1h5.9c39-.1 77-12.5 104.4-41.4 2.2-2.1 2.2-2.1 4.2-2.1l2-4 6.1-8.1c2-3 2.8-5.6 3.9-8.9l3.7-6.6A152 152 0 0 0 692 374" transform="matrix(.83 0 0 .83 76.5 76.5)"/><path fill="#302d35" d="m213 203.9 5 .2 4.8.3 4.3.2q5.5.6 10.9 2.4l6 1 2 1c-3.6 2.4-5.2 2.2-9.4 2.2h-4.1l-4.4-.1-9.3-.1-14.6-.2c-34.4-.4-34.4-.4-51.2 4.2l-4 1v2c-1.8 1.2-1.8 1.2-4.4 2.6A66 66 0 0 0 123 240l-3 1c-.6 2.1-.6 2.1-1 5l-2 7-2.1 8-1.1 4-.8 3h-2q0 66.2.2 132.3v18.8l.1 50.4.1 51.7.1 31.8v34.5l.1 13.7v4A73 73 0 0 0 122 643l1.8 3.2A55 55 0 0 0 142 664l3.1 2.2a56 56 0 0 0 9.9 4.8l3.3 1.6c14.2 5.5 34.1 2.5 49.2 2.5h8l19.5-.1a19 19 0 0 1-10.1 2.4l-3.8.1-4 .1-4.1.1-32.8.5c-9.6 0-19.4-.3-28-4.6l-2.8-1.4-2.4-1.2-3.2-1.4a56 56 0 0 1-9.8-7.6l-3.3-2.5a68 68 0 0 1-22.4-42c-.3-2.5-.3-2.5-1.3-4.5l.1-11.3.2-7.3v-4a3458 3458 0 0 0 1-73.1v-13.7c0-4.6-.2-7.4-2.3-11.6a70 70 0 0 1 2-11c1.3-7.5 1.3-15 1.3-22.6l.1-4.2v-7.8c-.5-4-2-6.1-4.4-9.4.2-2.6.2-2.6 1-5l.8-2.4.8-2.6c2-7.4 2-14.7 1-22.2q-1-8.4-1.2-16.9c-.3-6.7-.3-6.7-1.4-8.9-.2-5.5-.2-5.5 1-8q.2-5.6.1-11.2v-21.6a844 844 0 0 0-.9-40 467 467 0 0 1-.4-20v-3.5c0-24.5 10.5-42.3 28.7-57.9A70 70 0 0 1 170 204l3.8-.6c13-1.2 26.2-.2 39.3.5" transform="matrix(.83 0 0 .83 76.5 76.5)"/><path fill="url(#cg)" d="M0 0h19l16.5-.1h32.1c4 .4 4 .4 6.5 2.1 1.8 2.9 2 4.5 1.9 8v7l-.1 3.7-.1 11.9v8l-.3 19.7h-3v-3.1l-.8-29-.2-9.6-.1-4.4v-3.9l-.9-3C65.6 5 61 5.1 55.7 5h-30L9.6 4.9H-8.9c-18.4-.2-34.5 3-51.2 11.3-2.4 1.1-2.4 1.1-4.4 1.1l-2 4c-2.2 1.7-2.2 1.7-4.8 3.4-4.2 2.8-7 5.7-10.2 9.6l-2.7 1.8a72 72 0 0 0-22.3 27.2l-1.7 2.9a115 115 0 0 0-11.8 49.7l-.1 2.9q-.7 20.2-.7 40.3v8.8l-.2 22.7-.2 23.2-.3 45.5h-3l-.1-57.7-.1-26.8V139c-.3-32.8-.3-32.8 3.2-47.7l.6-3a104 104 0 0 1 21.4-45l2-2.6a95 95 0 0 1 14-14.5c2-1.9 2-1.9 4-4.4 2.4-2.9 4.3-3.7 7.8-5A69 69 0 0 0-61.5 12c3-1.7 3-1.7 7-1.7v-2l9.2-2.8 2.6-.9C-28.6.3-14.7 0 0 0" transform="matrix(.83 0 0 .83 374.055 336.041)"/><path fill="url(#rg)" d="M0 0c5 3.6 6.8 5.2 7.4 11.3C6.9 16.7 6 17.7 2 21c-3.2 4.8-2.3 9.8-2.3 15.4v9.8A15 15 0 0 0 3 54c2.6 1.3 4.5 1.1 7.4 1.1h7.1l7.6.2h12.2l11.7.1h3.7c11.3.2 16 5 23.7 12.8l2.4 2.4 5 5L96.2 88l2.3 2.3c6.6 6.6 6.6 6.6 6.6 12.8v40.6c.1 8 2 11.9 7.9 17.2l3.5 3.6 3.3 3.3 3.4 3.4c3.8 3.7 5.5 3.8 10.7 4l11 .4 9.1.3v4q-6.7.3-13.5.4l-3.8.2c-8.8.2-13-1-18.7-7.6l-4.2-4.1-4.2-4.2-2.2-2.2c-6.5-6.5-6.5-6.5-6.5-12.6v-40.7c-.1-8-2-11.8-7.9-17.2l-3.4-3.5-3.6-3.6-1.9-1.9-4-4-6-6-3.8-3.8-3.5-3.6C63 62.1 61.6 62 56.6 62H13.7c-8.4-.2-12-1.7-17.7-8-1.4-2.7-1.2-5-1.3-8l-.2-3.7-.2-7.6c-.4-7.7-1.4-12.2-6.7-17.8-1.6-1.9-1.6-1.9-2.3-6C-14 6.2-12.3 4.1-9 1-5.8-.6-3.5-.3 0 0" transform="matrix(.83 0 0 .83 678.25 156.18)"/><path fill="url(#rg)" d="m0 0 10.3.2 6.6.1H20c7.1.3 7.1.3 10.4 2.8l1.3 2-2 4q-5.6.4-11.2.4H.5c-25.2 0-44.8 2.4-62.7 21.6A58 58 0 0 0-75.6 69v5l-.1 7.6-.1 7.4v4.5c-.5 3.6-.5 3.6-3.5 6.6l-4-2c-.5-3.7-.5-3.7-.5-8.5V73.2c0-9.4.6-18.2 3.5-27.2l.8-2.7q1-3.7 2.2-7.3l.9-2.9c1.5-2.8 3.6-4.1 6.1-6l1.6-2.8A55 55 0 0 1-48.3 8h2V6A121 121 0 0 1 0 0" transform="matrix(.83 0 0 .83 238.599 250.8)"/><path fill="url(#rg)" d="m0 0 2.8 1.4C5.8 3.5 7 6 9 9l2.8 3a51 51 0 0 1 8 14.2l1.2 2.7c5.4 12.2 5.2 24.8 5.2 38v3.5c0 6-.1 11-2.2 16.6h-1v-3l-.4-14v-5c-.8-28-.8-28-8.6-38.1v-2h-2q-2-2.5-3.7-5.1A74 74 0 0 0-25-4l-2-1-7-.2h-4l-3 .2-1 2a427 427 0 0 0 20.3 7q4 1.6 7.7 4l-2 1-6.3-2.9a67 67 0 0 0-26.8-4.5l-24.2-.2-6.4-.1A40 40 0 0 1-95-1c-1-2.5-1-2.5-1-5 2.6-2.6 3.8-2.3 7.4-2.5 4-.2 5.8-.6 9.6-2.5 28.6-5.3 54.2-5 79 11" transform="matrix(.83 0 0 .83 708.96 258.27)"/><path fill="#58595c" d="M679.4 579.6h16.1c2.5.4 2.5.4 5.5 3.4.4 2.4.4 2.4.4 5.3v10c-.3 13.7-2.7 23.5-13.4 32.7-4.7 3-8.4 4.8-14 4-2-2-2-2-2-7 2-2 2-2 4.8-4 4-3 6.8-5 8.2-10-.3-2.9-.3-2.9-1-5l-4.8-.3c-4.4-.3-5-.4-8.2-3.7-.4-2.3-.4-2.3-.4-5v-14.7c.9-5.3 4.3-5.7 8.8-5.7m-42 0h16.1c2.5.4 2.5.4 5.5 3.4.6 4.8.2 9.6 0 14.4v4c-.3 11-2.8 20-11 27.7-4.7 3.7-8.7 6-15 5.6l-3-.7c-.8-2.2-.8-2.2-1-5 2.6-3.1 5.5-5.4 8.7-8 4.5-4 4.5-4 5.3-8l-1-4-4.8-.3c-4.4-.3-5-.4-8.2-3.7-.4-2.3-.4-2.3-.4-5v-14.7c.9-5.3 4.3-5.7 8.8-5.7" transform="matrix(.83 0 0 .83 76.5 76.5)"/><path fill="url(#rg)" d="M0 0c1 2.8 1 2.8 1 6-1.9 2.5-4 4-6.5 5.8A18 18 0 0 0-12 25c3.4 1.7 7.2 1.6 11 2v2l3 1 .2 10.3v3c.1 7.4.1 7.4-3.2 10.7-2.5.4-2.5.4-5.4.4h-16.1C-25 54-25 54-28 51c-.7-4.4-.6-9-.6-13.4v-3.7c-.1-10.6 2.8-19 10-26.9C-13.1 2.5-7.2-1.8 0 0" transform="matrix(.83 0 0 .83 269.06 284.83)"/><path fill="url(#rg)" d="M0 0c2 2 2 2 2 4.4C.6 7.8-1 8.9-4 11c-4.4 4-8 7.8-8 14 2 1 2 1 6.4 1.4C-1 27-1 27 2 30q.4 5.3.4 10.5v3c0 7.1 0 7.1-3.4 10.5-2.4.4-2.4.4-5.2.4h-15.4C-24 54-24 54-27 51c-.4-2.4-.4-2.4-.4-5.2v-9.5c.2-11.7 1.5-21.8 10.4-30.1A24 24 0 0 1 0 0" transform="matrix(.83 0 0 .83 234.2 284.83)"/><path fill="#36353c" d="m604 398 4 1c-5.7 6-5.7 6-8 6v2l-5 1v2c-2.6 1.4-2.6 1.4-6.1 3l-3.5 1.5a97 97 0 0 1-32.8 5H526l-24.3.2h-24.9l-48.7.3 1-2q5.8-1 11.6-1.2l4-.2 3.7-.1c3.7-.5 3.7-.5 7-2 11.6-4.7 26.9-2.6 39.2-2.6h5.2l19 .1h23.5c35.6.2 35.6.2 46.4-6.6 2.4-1.4 2.4-1.4 5.9-1.3 4.5-.1 5.7-1.7 8.5-5.1z" transform="matrix(.83 0 0 .83 76.5 76.5)"/><path fill="#2e2c34" d="M191.7 219.8h13.4l7 .1 16.9.1v1l-3 .2-4.1.2-4 .2c-3.9.4-3.9.4-6.7 1.4-4.9 1.5-9.9 1.6-15 2-19.4 1.4-39 3-52.2 19l-4.6 6.9c-1.4 2.1-1.4 2.1-4 5.3-4 4.8-5.8 9.5-7 15.6l-.7 3.8-.7 3.4-1 4.3-1 4.7-.7 3.2c-2 9.1-2.6 18-2.8 27.3l-.2 4q-.6 30.9-.8 61.7l-.2 16.9-.3 32.9h-1v-81.8l-.1-34.7v-17.4c0-15.2.4-28.2 7.1-42.1l1.6-3.4a59 59 0 0 1 39-31.8 100 100 0 0 1 25.1-3" transform="matrix(.83 0 0 .83 76.5 76.5)"/><path fill="url(#rg)" d="M0 0c5.5 2.8 8 7.2 10 13l.1 5.6V26l.2 8v12.4l.1 12.1v3.8c.1 8.3.9 14.5 7.4 20.3 6.3 2.3 12.5 1.8 19.2 1.5l-1 6 4 2a33 33 0 0 1-27-2A30 30 0 0 1 .6 67.8Q.4 62.6.5 57.5V41.6l-.1-12v-7.4C.4 12 .4 12-3 7l3-1z" transform="matrix(.83 0 0 .83 371.15 633.43)"/></g></svg>